<?xml version="1.0" encoding="UTF-8"?>
<svg width="18px" height="18px" viewBox="0 0 18 18" version="1.1" xmlns="http://www.w3.org/2000/svg" xmlns:xlink="http://www.w3.org/1999/xlink">
    <!-- Generator: Sketch 51.3 (57544) - http://www.bohemiancoding.com/sketch -->
    <title>Card/icon/add</title>
    <desc>Created with Sketch.</desc>
    <defs></defs>
    <g id="Card/icon/add" stroke="none" stroke-width="1" fill="none" fill-rule="evenodd">
        <g fill="#795548" fill-rule="nonzero" id="icon-add">
            <g>
                <path d="M17.0231489,7.74417413 L10.2557842,7.74417413 L10.2557842,0.976745321 C10.2557842,0.668461223 9.83716505,0 8.9999634,0 C8.16276176,0 7.74414264,0.668497818 7.74414264,0.976745321 L7.74414264,7.74421073 L0.976741349,7.74421073 C0.6684951,7.74417413 0,8.16279495 0,8.9999634 C0,9.83713186 0.6684951,10.2557893 0.976741349,10.2557893 L7.74417924,10.2557893 L7.74417924,17.0232547 C7.74417924,17.3314656 8.16276176,18 9,18 C9.83723824,18 10.2558208,17.3314656 10.2558208,17.0232547 L10.2558208,10.2557893 L17.0232587,10.2557893 C17.3314683,10.2557893 18,9.83720505 18,8.9999634 C18,8.16272176 17.3313951,7.74417413 17.0231489,7.74417413 Z" id="Shape"></path>
            </g>
        </g>
    </g>
</svg>