<?xml version="1.0" encoding="UTF-8"?>
<svg width="22px" height="20px" viewBox="0 0 22 20" version="1.1" xmlns="http://www.w3.org/2000/svg" xmlns:xlink="http://www.w3.org/1999/xlink">
    <!-- Generator: Sketch 51.3 (57544) - http://www.bohemiancoding.com/sketch -->
    <title>Card/icon/edit tag</title>
    <desc>Created with Sketch.</desc>
    <defs></defs>
    <g id="Card/icon/edit-tag" stroke="none" stroke-width="1" fill="none" fill-rule="evenodd">
        <path d="M11.9582901,13 L13.2068956,11.7477273 L11.5707919,10.1068182 L10.3221864,11.3590909 L10.3221864,11.9636364 L11.3555151,11.9636364 L11.3555151,13 L11.9582901,13 Z M16.6943798,5.22727273 C16.5975053,5.13011364 16.4360477,5.14090909 16.3391731,5.23806818 L12.571829,9.01647727 C12.4749544,9.11363636 12.4641906,9.27556818 12.5610652,9.37272727 C12.6579397,9.46988636 12.8193973,9.45909091 12.9162719,9.36193182 L16.683616,5.58352273 C16.7804905,5.48636364 16.7912544,5.32443182 16.6943798,5.22727273 Z M17.555487,11.6397727 L17.555487,13.6909091 C17.555487,15.4073864 16.1669516,16.8 14.4555011,16.8 L5.49998598,16.8 C3.78853539,16.8 2.4,15.4073864 2.4,13.6909091 L2.4,4.70909091 C2.4,2.99261364 3.78853539,1.6 5.49998598,1.6 L14.4555011,1.6 C14.8860547,1.6 15.3166083,1.68636364 15.7148704,1.86988636 C15.8117449,1.91306818 15.8870918,2.01022727 15.9086195,2.11818182 C15.9301472,2.23693182 15.8978556,2.34488636 15.8117449,2.43125 L15.2843167,2.96022727 C15.1874422,3.05738636 15.0582761,3.08977273 14.9398739,3.04659091 C14.7784163,3.00340909 14.6169587,2.98181818 14.4555011,2.98181818 L5.49998598,2.98181818 C4.55276804,2.98181818 3.77777155,3.75909091 3.77777155,4.70909091 L3.77777155,13.6909091 C3.77777155,14.6409091 4.55276804,15.4181818 5.49998598,15.4181818 L14.4555011,15.4181818 C15.402719,15.4181818 16.1777155,14.6409091 16.1777155,13.6909091 L16.1777155,12.3306818 C16.1777155,12.2443182 16.210007,12.1579545 16.27459,12.0931818 L16.9634758,11.4022727 C17.0711142,11.2943182 17.2110441,11.2727273 17.3402102,11.3267045 C17.4693763,11.3806818 17.555487,11.4994318 17.555487,11.6397727 Z M16.5221584,3.67272727 L19.6221444,6.78181818 L12.3888437,14.0363636 L9.28885774,14.0363636 L9.28885774,10.9272727 L16.5221584,3.67272727 Z M21.3013034,5.09772727 L20.3110301,6.09090909 L17.2110441,2.98181818 L18.2013174,1.98863636 C18.5995795,1.58920455 19.2669376,1.58920455 19.6651997,1.98863636 L21.3013034,3.62954545 C21.6995655,4.02897727 21.6995655,4.69829545 21.3013034,5.09772727 Z" id="ï„" fill="#795548"></path>
    </g>
</svg>