<?xml version="1.0" encoding="UTF-8"?>
<svg width="18px" height="18px" viewBox="0 0 18 18" version="1.1" xmlns="http://www.w3.org/2000/svg" xmlns:xlink="http://www.w3.org/1999/xlink">
    <!-- Generator: Sketch 51.3 (57544) - http://www.bohemiancoding.com/sketch -->
    <title>Card/icon/favorite</title>
    <desc>Created with Sketch.</desc>
    <defs></defs>
    <g id="Card/icon/favorite" stroke="none" stroke-width="1" fill="none" fill-rule="evenodd">
        <g fill="#795548" id="">
            <path d="M17.0738232,6.01171884 C17.3653781,6.05859366 17.5952576,6.19921866 17.7634622,6.43359384 C17.9316669,6.66796901 18.0101622,6.92578133 17.9989487,7.20703133 C17.9877353,7.48828133 17.8812055,7.73437508 17.6793599,7.94531257 L14.1134213,11.5664063 L14.9544446,16.6992188 C14.999299,16.9804688 14.9488376,17.2441406 14.8030604,17.4902344 C14.6572832,17.7363281 14.4498306,17.8945313 14.1807032,17.9648438 C13.9115758,18.0351562 13.6536618,18 13.4069618,17.859375 L9,15.46875 L4.59303818,17.859375 C4.3463382,18 4.08842423,18.0351562 3.81929679,17.9648438 C3.55016936,17.8945313 3.34271678,17.7363281 3.19693959,17.4902344 C3.0511624,17.2441406 3.00070101,16.9804688 3.04555541,16.6992188 L3.88657865,11.5664063 L0.320640085,7.94531257 C0.118794506,7.73437508 0.0122647231,7.48828133 0.00105125086,7.20703133 C-0.0101622213,6.92578133 0.0683331107,6.66796901 0.23653776,6.43359384 C0.40474241,6.19921866 0.634621926,6.05859366 0.926176823,6.01171884 L5.83775259,5.27343759 L8.02441303,0.632812629 C8.15897675,0.351562631 8.35521534,0.164062812 8.61312931,0.0703126336 C8.87104327,-0.0234375445 9.12895673,-0.0234375445 9.38687069,0.0703126336 C9.64478466,0.164062812 9.84102325,0.351562631 9.97558697,0.632812629 L12.1622474,5.27343759 L17.0738232,6.01171884 Z M12.3977339,10.9687501 L15.7618269,7.52343758 L11.0857377,6.82031258 L9,2.39062512 L6.91426235,6.82031258 L2.23817309,7.52343758 L5.60226608,10.9687501 L4.82852469,15.8554688 L9,13.5351563 L13.1714753,15.8554688 L12.3977339,10.9687501 Z"></path>
        </g>
    </g>
</svg>