<?xml version="1.0" encoding="UTF-8"?>
<svg width="28px" height="19px" viewBox="0 0 28 19" version="1.1" xmlns="http://www.w3.org/2000/svg" xmlns:xlink="http://www.w3.org/1999/xlink">
    <!-- Generator: Sketch 51.3 (57544) - http://www.bohemiancoding.com/sketch -->
    <title>NavigationIcon/closet/unselected</title>
    <desc>Created with Sketch.</desc>
    <defs></defs>
    <g id="NavigationIcon/closet/unselected" stroke="none" stroke-width="1" fill="none" fill-rule="evenodd">
        <g id="hanger" fill="#795548" fill-rule="nonzero">
            <path d="M26.6391874,13.9892087 C26.6391242,13.9892087 26.6391242,13.9892087 26.6391874,13.9892087 L16.5577336,8.08890966 C16.3819594,7.98603738 16.1788172,7.93146417 15.9715666,7.93146417 L15.1060948,7.93146417 L15.1060948,7.49120872 C16.8177607,7.03864174 18.0758646,5.56279751 18.0758646,3.81698754 C18.0758646,1.71230841 16.2474582,0 14,0 C11.7524786,0 9.92407223,1.71230841 9.92407223,3.81698754 C9.92407223,4.38905919 10.4192867,4.85281308 11.030167,4.85281308 C11.6410474,4.85281308 12.1362619,4.38905919 12.1362619,3.81698754 C12.1362619,2.85461682 12.9722799,2.07165109 14,2.07165109 C15.0276569,2.07165109 15.8636749,2.85461682 15.8636749,3.81698754 C15.8636749,4.77935826 15.0275937,5.56232399 14,5.56232399 C13.3891196,5.56232399 12.8939052,6.02607788 12.8939052,6.59814953 L12.8939052,7.93146417 L12.0284334,7.93146417 C11.8211828,7.93146417 11.6180406,7.98603738 11.4422664,8.08890966 L1.36081264,13.9892087 C0.508740406,14.4880031 0,15.3475016 0,16.2885639 C0,17.7836449 1.29887133,19 2.89537698,19 L25.1045598,19 C26.7011287,19 28,17.7836449 28,16.2885639 C28,15.3475016 27.4912596,14.4880031 26.6391874,13.9892087 Z M25.1045598,16.9283489 L2.89537698,16.9283489 C2.51867269,16.9283489 2.21218962,16.6413364 2.21218962,16.2885639 C2.21218962,16.0665421 2.3322167,15.8636386 2.53327314,15.7459688 L12.3455982,10.0031153 L15.6543386,10.0031153 L25.4666637,15.7459688 C25.6677833,15.8636386 25.7878104,16.0665421 25.7878104,16.2885639 C25.7878104,16.6413364 25.4812641,16.9283489 25.1045598,16.9283489 Z" id="Shape"></path>
        </g>
    </g>
</svg>