<?xml version="1.0" encoding="UTF-8"?>
<svg width="24px" height="23px" viewBox="0 0 24 23" version="1.1" xmlns="http://www.w3.org/2000/svg" xmlns:xlink="http://www.w3.org/1999/xlink">
    <!-- Generator: Sketch 51.3 (57544) - http://www.bohemiancoding.com/sketch -->
    <title>NavigationIcon/favorite/unselected</title>
    <desc>Created with Sketch.</desc>
    <defs></defs>
    <g id="NavigationIcon/favorite/unselected" stroke="none" stroke-width="1" fill="none" fill-rule="evenodd">
        <path d="M22.9417505,7.68164074 C23.3335069,7.74153634 23.6423914,7.92122384 23.8684046,8.22070324 C24.0944177,8.52018263 24.1998903,8.84960948 24.184823,9.20898448 C24.1697557,9.56835948 24.0266138,9.8828126 23.755398,10.1523438 L18.9639185,14.7792969 L20.0939844,21.3378906 C20.1542544,21.6972656 20.0864504,22.0341797 19.8905726,22.3486328 C19.6946947,22.6630859 19.4159449,22.8652344 19.0543238,22.9550781 C18.6927027,23.0449219 18.3461489,23 18.0146631,22.8203125 L12.0931178,19.765625 L6.17157241,22.8203125 C5.84008664,23 5.49353286,23.0449219 5.13191177,22.9550781 C4.77029068,22.8652344 4.49154086,22.6630859 4.295663,22.3486328 C4.09978514,22.0341797 4.03198119,21.6972656 4.09225114,21.3378906 L5.22231705,14.7792969 L0.43083759,10.1523438 C0.159621772,9.8828126 0.01647986,9.56835948 0.0014125445,9.20898448 C-0.013654771,8.84960948 0.0918178173,8.52018263 0.317830999,8.22070324 C0.543844181,7.92122384 0.852728633,7.74153634 1.24448505,7.68164074 L7.84406996,6.73828137 L10.7822413,0.808593915 C10.9630519,0.449218918 11.2267337,0.209635815 11.5732875,0.0898439207 C11.9198412,-0.0299479736 12.2663943,-0.0299479736 12.6129481,0.0898439207 C12.9595019,0.209635815 13.2231837,0.449218918 13.4039942,0.808593915 L16.3421656,6.73828137 L22.9417505,7.68164074 Z M16.6585841,14.0156251 L21.1788477,9.61328135 L14.8956812,8.71484386 L12.0931178,3.05468765 L9.29055432,8.71484386 L3.00738786,9.61328135 L7.5276515,14.0156251 L6.48799087,20.2597656 L12.0931178,17.2949219 L17.6982447,20.2597656 L16.6585841,14.0156251 Z" id="" fill="#795548"></path>
    </g>
</svg>