<?xml version="1.0" encoding="UTF-8"?>
<svg width="40px" height="40px" viewBox="0 0 40 40" version="1.1" xmlns="http://www.w3.org/2000/svg" xmlns:xlink="http://www.w3.org/1999/xlink">
    <!-- Generator: Sketch 51.3 (57544) - http://www.bohemiancoding.com/sketch -->
    <title>Group 3</title>
    <desc>Created with Sketch.</desc>
    <defs>
        <polygon id="path-1" points="0 0 40 0 40 40 0 40"></polygon>
        <linearGradient x1="115.827481%" y1="54.9766827%" x2="-8.49937556%" y2="54.9766827%" id="linearGradient-3">
            <stop stop-color="#9E786A" offset="0%"></stop>
            <stop stop-color="#B0957E" offset="100%"></stop>
        </linearGradient>
    </defs>
    <g id="Symbols" stroke="none" stroke-width="1" fill="none" fill-rule="evenodd">
        <g id="Homepage/sports-wear">
            <g id="Group-3">
                <mask id="mask-2" fill="white">
                    <use xlink:href="#path-1"></use>
                </mask>
                <g id="Clip-2"></g>
                <path d="M16.0298882,37.4123873 L14,30.944514 L17.1399729,27 L23.8603598,27 L27,30.944514 L24.9701118,37.4127317 C23.5410067,37.7960922 22.0433737,38 20.5001663,38 C18.956959,38 17.459326,37.7957477 16.0298882,37.4123873 Z M12.8970332,4 L18,7.93637348 L18,14.0926002 L12.9351103,18 L7.96509599,15.7538684 L6,9.33216219 C7.82262415,6.9863073 10.1913375,5.13502587 12.8970332,4 Z M33,9.32505833 L31.031986,15.7547329 L26.0637342,18 L21,14.0941041 L21,7.94024681 L26.1090962,4 C28.2528483,4.89615357 30.2205451,6.25840129 31.89894,8.04026846 C32.2875307,8.45281566 32.6542335,8.88152799 33,9.32505833 Z M10.9998411,28.9996768 L4.6451237,29 C3.12549664,26.5857147 2.17926577,23.7648469 2,20.7368095 L7.05853684,17 L12.0363405,19.1544345 L14,25.298419 L10.9998411,28.9996768 Z M34.355442,29 L28.0002384,29 L25,25.2983193 L26.9633936,19.1541694 L31.941647,17 L37,20.7365869 C36.8207295,23.7650291 35.8747914,26.5859729 34.355442,29 Z M34.1420128,5.85770614 C30.3646631,2.08032532 25.342026,0 20,0 C14.657974,0 9.63533692,2.08032532 5.85798719,5.85770614 C2.08063746,9.63508697 0,14.6574361 0,19.9998354 C0.000329266887,25.3422346 2.08063746,30.3645838 5.85798719,34.1419646 C9.63566619,37.9193454 14.657974,39.9996707 20,40 C25.342026,40 30.3646631,37.9196747 34.1420128,34.1419646 C37.9193625,30.3645838 40,25.3422346 40,19.9998354 C40,14.6577654 37.9193625,9.63508697 34.1420128,5.85770614 Z" id="Fill-1" fill="url(#linearGradient-3)" mask="url(#mask-2)"></path>
            </g>
        </g>
    </g>
</svg>