<?xml version="1.0" encoding="UTF-8"?>
<svg width="45px" height="40px" viewBox="0 0 45 40" version="1.1" xmlns="http://www.w3.org/2000/svg" xmlns:xlink="http://www.w3.org/1999/xlink">
    <!-- Generator: Sketch 51.3 (57544) - http://www.bohemiancoding.com/sketch -->
    <title>Group 15</title>
    <desc>Created with Sketch.</desc>
    <defs>
        <polygon id="path-1" points="0 0.0096912114 13.5317925 0.0096912114 13.5317925 11.511829 0 11.511829"></polygon>
        <linearGradient x1="115.827481%" y1="54.9766827%" x2="-8.49937556%" y2="54.9766827%" id="linearGradient-3">
            <stop stop-color="#9E786A" offset="0%"></stop>
            <stop stop-color="#B0957E" offset="100%"></stop>
        </linearGradient>
        <polygon id="path-4" points="0.0687830189 0.00968171021 13.6004717 0.00968171021 13.6004717 11.5108694 0.0687830189 11.5108694"></polygon>
    </defs>
    <g id="Symbols" stroke="none" stroke-width="1" fill="none" fill-rule="evenodd">
        <g id="Homepage/lounge-wear-2">
            <g id="Group-15">
                <g id="Group-3" transform="translate(0.000000, 11.311924)">
                    <mask id="mask-2" fill="white">
                        <use xlink:href="#path-1"></use>
                    </mask>
                    <g id="Clip-2"></g>
                    <path d="M7.42801887,9.70052257 L13.5317925,9.70052257 C12.3251887,7.31942993 10.269434,4.25824228 6.78122642,1.00731591 C6.1009434,0.373301663 5.18716981,0.0096912114 4.27396226,0.0096912114 C3.31386792,0.0096912114 2.37301887,0.384513064 1.47745283,1.12389549 C-1.31509434,3.42916865 0.589245283,6.27733967 1.23943396,7.09548694 C2.09858491,8.17653207 2.99783019,9.69957245 3.79028302,11.511829 C4.62924528,10.4115914 5.94745283,9.70052257 7.42801887,9.70052257" id="Fill-1" fill="url(#linearGradient-3)" mask="url(#mask-2)"></path>
                </g>
                <g id="Group-6" transform="translate(31.320755, 11.311924)">
                    <mask id="mask-5" fill="white">
                        <use xlink:href="#path-4"></use>
                    </mask>
                    <g id="Clip-5"></g>
                    <path d="M12.1230283,1.12388599 C11.2274623,0.384598575 10.2866132,0.00968171021 9.32651887,0.00968171021 C8.41340566,0.00968171021 7.49953774,0.373292162 6.81925472,1.00730641 C3.33095283,4.25823278 1.27529245,7.31942043 0.0687830189,9.70051306 L6.1725566,9.70051306 C7.65265094,9.70051306 8.97057547,10.4112969 9.8094434,11.5108694 C10.6020849,9.69880285 11.5017075,8.17652257 12.3609528,7.09538242 C13.0112358,6.27733017 14.9155755,3.42906413 12.1230283,1.12388599" id="Fill-4" fill="url(#linearGradient-3)" mask="url(#mask-5)"></path>
                </g>
                <path d="M40.1920189,31.7428504 L40.1920189,25.6307363 C40.1920189,24.132019 38.9814528,22.9127316 37.493434,22.9127316 L7.4280566,22.9127316 C5.94003774,22.9127316 4.7294717,24.132019 4.7294717,25.6307363 L4.7294717,31.7428504 C4.7294717,33.2413777 5.94003774,34.4605701 7.4280566,34.4605701 L37.4933396,34.4605701 C38.9814528,34.4605701 40.1920189,33.2413777 40.1920189,31.7428504" id="Fill-7" fill="url(#linearGradient-3)"></path>
                <polygon id="Fill-9" fill="url(#linearGradient-3)" points="34.1041604 36.3608551 34.5493491 39.9104988 36.8198208 39.9104988 37.2650094 36.3608551"></polygon>
                <polygon id="Fill-11" fill="url(#linearGradient-3)" points="7.65632075 36.3608551 8.10150943 39.9104988 10.3720755 39.9104988 10.8172642 36.3608551"></polygon>
                <path d="M29.2829811,21.0124466 C30.5760943,18.1874584 32.8514717,14.6590024 36.8585472,10.9244656 C37.4237358,10.3977197 38.0794906,10.0007601 38.7855283,9.74698337 C36.2460943,4.04988124 29.8868491,0 22.460717,0 C15.0343962,0 8.67411321,4.04940618 6.13458491,9.74660333 C6.841,10.00038 7.49722642,10.3974347 8.06269811,10.9244656 C12.0697736,14.6589074 14.3452453,18.1872684 15.6383585,21.0124466 L29.2829811,21.0124466 Z" id="Fill-13" fill="url(#linearGradient-3)"></path>
            </g>
        </g>
    </g>
</svg>