<?xml version="1.0" encoding="UTF-8"?>
<svg width="40px" height="34px" viewBox="0 0 40 34" version="1.1" xmlns="http://www.w3.org/2000/svg" xmlns:xlink="http://www.w3.org/1999/xlink">
    <!-- Generator: Sketch 51.3 (57544) - http://www.bohemiancoding.com/sketch -->
    <title>Group 6</title>
    <desc>Created with Sketch.</desc>
    <defs>
        <polygon id="path-1" points="0 0 40 0 40 12 0 12"></polygon>
        <linearGradient x1="115.827481%" y1="54.9766827%" x2="-8.49937556%" y2="54.9766827%" id="linearGradient-3">
            <stop stop-color="#9E786A" offset="0%"></stop>
            <stop stop-color="#B0957E" offset="100%"></stop>
        </linearGradient>
        <polygon id="path-4" points="0 33 40 33 40 0 0 0"></polygon>
    </defs>
    <g id="Symbols" stroke="none" stroke-width="1" fill="none" fill-rule="evenodd">
        <g id="Homepage/formal-wear">
            <g id="Group-6">
                <g id="Group-3" transform="translate(0.000000, 22.000000)">
                    <mask id="mask-2" fill="white">
                        <use xlink:href="#path-1"></use>
                    </mask>
                    <g id="Clip-2"></g>
                    <path d="M38.3306122,0.598906426 L22.4489796,0.581655317 L22.4489796,2.31761597 C22.4467347,3.1458862 21.8157143,3.8167265 21.0368367,3.81922194 L18.9673469,3.81922194 C18.1936735,3.82160889 17.5622449,3.16172684 17.5510204,2.33920698 L17.5510204,0.603246328 L1.68571429,0.603246328 C1.07734694,0.600859382 0.486122449,0.389180679 0,0 L0,9.98177377 C0.00448979592,11.0943076 0.851734694,11.9950541 1.89795918,11.999828 L38.0693878,11.999828 C39.1221429,12.0142582 39.9865306,11.1187195 40,9.99956737 L40,9.99924187 L40,0.0174681041 C39.5159184,0.395256542 38.9312245,0.599014924 38.3306122,0.598906426" id="Fill-1" fill="url(#linearGradient-3)" mask="url(#mask-2)"></path>
                </g>
                <mask id="mask-5" fill="white">
                    <use xlink:href="#path-4"></use>
                </mask>
                <g id="Clip-5"></g>
                <path d="M15,5 L26,5 L26,2 L15,2 L15,5 Z M27.755102,5.24471299 L27.755102,2.39687815 C27.7539796,1.76163142 27.4970408,1.1530715 27.0408163,0.704934542 C26.5868367,0.254783484 25.970102,0.00120845921 25.3265306,0 L14.6571429,0 C13.3045918,0 12.2081633,1.08207452 12.2081633,2.41691843 L12.2081633,5.26495468 L1.91428571,5.26495468 C0.869489796,5.26042296 0.0156122449,6.08680765 0,7.11782477 L0,18.3524673 C0.00224489796,19.26143 0.748367347,19.9977845 1.66938776,20 L17.5510204,20 L17.5510204,18.388721 C17.5532653,17.6199396 18.1842857,16.9971803 18.9632653,16.9950655 L21.0285714,16.9950655 C21.8037755,16.9905337 22.4377551,17.6036254 22.4489796,18.3685801 L22.4489796,19.979859 L38.3183673,19.979859 C39.2363265,19.9843907 39.9865306,19.2583082 40,18.3524673 L40,7.11782477 C39.9955102,6.07905337 39.1384694,5.24028197 38.0857143,5.24471299 L27.755102,5.24471299 Z" id="Fill-4" fill="url(#linearGradient-3)" mask="url(#mask-5)"></path>
            </g>
        </g>
    </g>
</svg>