<?xml version="1.0" encoding="UTF-8"?>
<svg width="61px" height="100px" viewBox="0 0 61 100" version="1.1" xmlns="http://www.w3.org/2000/svg" xmlns:xlink="http://www.w3.org/1999/xlink">
    <!-- Generator: Sketch 51.3 (57544) - http://www.bohemiancoding.com/sketch -->
    <title>Icon/full body</title>
    <desc>Created with Sketch.</desc>
    <defs>
        <linearGradient x1="115.827481%" y1="54.9766827%" x2="-8.49937556%" y2="54.9766827%" id="linearGradient-1">
            <stop stop-color="#9E786A" offset="0%"></stop>
            <stop stop-color="#B0957E" offset="100%"></stop>
        </linearGradient>
    </defs>
    <g id="Page-2" stroke="none" stroke-width="1" fill="none" fill-rule="evenodd">
        <g id="Homepage" transform="translate(-70.000000, -140.000000)" fill="url(#linearGradient-1)">
            <g id="Group" transform="translate(56.000000, 140.000000)">
                <g id="Homepage/full-body" transform="translate(14.000000, 0.000000)">
                    <path d="M55.0891175,0.98014672 C55.0277255,0.422322497 54.5551132,0 53.9920007,0 L49.4077143,0 C48.7149377,0 48.1534129,0.559405955 48.1534129,1.25009568 L48.1534129,14.372146 C48.1534129,15.0628357 47.5918881,15.6222417 46.8991115,15.6222417 L14.9091334,15.6222417 C14.2163568,15.6222417 13.654832,15.0628357 13.654832,14.372146 L13.654832,1.25009568 C13.654832,0.559405955 13.0933072,0 12.4005306,0 L7.00809308,0 C6.44498055,0 5.97236825,0.422322497 5.91097629,0.98014672 L0.0067626097,98.7810117 C-0.0652141795,99.4316309 0.446561961,100 1.10335016,100 L26.7503737,100 C27.3140155,100 27.7866278,99.5771503 27.8480198,99.019326 L29.4029301,66.5669138 C29.5452959,65.2593485 31.4547978,65.2593485 31.5971637,66.5669138 L33.152074,99.019326 C33.2129367,99.5771503 33.6860783,100 34.2491908,100 L59.8962144,100 C60.5530026,100 61.0647787,99.4316309 60.9933312,98.7810117 L55.0891175,0.98014672 Z" id="Fill-1"></path>
                </g>
            </g>
        </g>
    </g>
</svg>