<?xml version="1.0" encoding="UTF-8"?>
<svg width="40px" height="32px" viewBox="0 0 40 32" version="1.1" xmlns="http://www.w3.org/2000/svg" xmlns:xlink="http://www.w3.org/1999/xlink">
    <!-- Generator: Sketch 51.3 (57544) - http://www.bohemiancoding.com/sketch -->
    <title>Homepage/top</title>
    <desc>Created with Sketch.</desc>
    <defs>
        <linearGradient x1="115.827481%" y1="54.9766827%" x2="-8.49937556%" y2="54.9766827%" id="linearGradient-1">
            <stop stop-color="#9E786A" offset="0%"></stop>
            <stop stop-color="#B0957E" offset="100%"></stop>
        </linearGradient>
    </defs>
    <g id="Page-2" stroke="none" stroke-width="1" fill="none" fill-rule="evenodd">
        <g id="Homepage" transform="translate(-213.000000, -144.000000)" fill="url(#linearGradient-1)">
            <g id="Homepage/top" transform="translate(213.000000, 144.000000)">
                <path d="M26.3570732,0.0195661333 C26.0615241,-0.0107438906 25.7843214,0.15259346 25.6624898,0.417806169 C24.7044636,2.49881383 22.5679676,3.948082 20.0848966,3.948082 C17.5960923,3.948082 15.4552964,2.49207826 14.5007101,0.402651157 C14.3805985,0.139964284 14.1082691,-0.0233730672 13.8152999,0.00272723115 C9.75128497,0.363079737 5.26071612,2.88779246 0.21717521,7.45618662 C0.00819821102,7.64534362 -0.0571608505,7.94395348 0.0526309063,8.20102739 L3.59377339,16.4910996 C3.70385181,16.7487348 3.96672137,16.9115108 4.25166394,16.8988816 L6.76856114,16.7869029 C7.16874206,16.7692221 7.497544,17.0922484 7.47805095,17.4837528 L6.69947546,31.3025888 C6.68055573,31.6820254 6.98986463,32 7.37800572,32 L18.7258294,32 L21.2739728,32 L32.6217966,32 C33.0102243,32 33.3195332,31.6820254 33.3006135,31.3025888 L32.522038,17.4837528 C32.5025449,17.0922484 32.8313469,16.7692221 33.2315278,16.7869029 L35.748425,16.8988816 C36.0333676,16.9115108 36.2962371,16.7487348 36.4063156,16.4910996 L39.9471714,8.20102739 C40.0572498,7.94395348 39.9918907,7.64534362 39.7829137,7.45618662 C34.8104651,2.95206094 30.3755088,0.434925719 26.3570732,0.0195661333 Z" id="Fill-1"></path>
            </g>
        </g>
    </g>
</svg>