<?xml version="1.0" encoding="UTF-8"?>
<svg width="194px" height="158px" viewBox="0 0 194 158" version="1.1" xmlns="http://www.w3.org/2000/svg" xmlns:xlink="http://www.w3.org/1999/xlink">
    <!-- Generator: Sketch 51.3 (57544) - http://www.bohemiancoding.com/sketch -->
    <title>Icon - scanning a clothes</title>
    <desc>Created with Sketch.</desc>
    <defs></defs>
    <g id="Icon---scanning-a-clothes" stroke="none" stroke-width="1" fill="none" fill-rule="evenodd">
        <g id="Group">
            <g id="icon---clothes-with-hanger">
                <g id="icon---hanger" transform="translate(51.500000, 0.076241)" fill="#845353">
                    <path d="M3.707,48.9564254 C11.7855,45.8556127 20.8275,43.0652825 29.53,43.0743111 C38.175,43.0833397 47.136,45.837054 55.1515,48.9499048 C58.7545,50.3493333 60.315,44.5319238 56.7465,43.1460381 C48.2385,39.841581 38.704,37.0457333 29.53,37.0552635 C20.2835,37.0647937 10.7005,39.8556254 2.112,43.1520571 C-1.4585,44.5223937 0.0915,50.3438159 3.707,48.9564254" id="Fill-1"></path>
                    <path d="M21.1772,14.0443943 C21.2267,11.4672387 22.0567,8.84845143 24.3877,7.47259746 C27.0602,5.8951054 31.1072,6.13937841 33.7057,7.75649587 C35.8687,9.10275619 37.1262,11.4928197 37.0927,14.0418863 C37.0657,16.1009022 37.0662,18.7121657 36.5042,20.669861 C35.3497,24.6930927 28.8412,23.8689848 26.9642,27.3770863 C25.9862,29.2048705 26.5297,32.1767752 26.5297,34.1841276 L26.5297,40.0647371 C26.5297,43.9379943 32.5297,43.9440133 32.5297,40.0647371 L32.5297,35.2710673 L32.5297,31.5708578 C32.5297,31.0777975 32.5827,30.558153 32.5297,30.0676006 C32.3262,28.1635752 32.1587,31.1420006 31.7452,30.8395435 C31.7377,30.8345276 33.2082,30.1563816 33.6742,29.9552451 C34.6767,29.5233784 35.6857,29.1030483 36.6487,28.5874165 C38.9137,27.3740768 41.0752,25.6330673 41.9942,23.1512133 C42.8712,20.7822165 42.7902,17.9046102 42.9877,15.4057022 C43.1607,13.212261 42.9692,11.0765022 42.1462,9.01247048 C39.6812,2.82639429 33.2052,-0.141999365 26.7987,0.58379746 C19.6592,1.39235619 15.3122,7.02768952 15.1772,14.0443943 C15.1027,17.9191562 21.1027,17.9191562 21.1772,14.0443943" id="Fill-3"></path>
                </g>
                <path d="M80.92915,157.574654 C52.34365,157.574654 39.11215,152.241778 35.28015,150.325213 C34.52265,149.947016 34.05965,149.167549 34.08315,148.319365 C34.20965,143.759435 34.81215,127.93586 37.41415,108.051937 C37.54615,107.041238 36.46565,106.315943 35.58515,106.824552 L29.11915,110.563886 C28.22215,111.083029 27.08615,110.904965 26.39465,110.132019 C18.98565,101.860343 4.34715,76.4228444 0.28565,69.2702095 C-0.30835,68.2244 0.05465,66.8997079 1.08915,66.2897778 C21.45715,54.2913079 37.68465,41.3006984 54.24015,40.7755365 C55.24865,40.7434349 56.15415,41.4065333 56.43165,42.3796127 C57.64665,46.6416 62.11965,58.9701143 80.92915,58.9701143 C99.73865,58.9701143 104.21165,46.6416 105.42665,42.3796127 C105.70365,41.4065333 106.60965,40.7434349 107.61815,40.7755365 C124.17315,41.3006984 140.40115,54.2913079 160.76915,66.2897778 C161.80365,66.8997079 162.16665,68.2244 161.57265,69.2702095 C157.51115,76.4228444 142.87265,101.860343 135.46365,110.132019 C134.77165,110.904965 133.63615,111.083029 132.73865,110.563886 L126.27265,106.824552 C125.39265,106.315943 124.31215,107.041238 124.44415,108.051937 C127.04615,127.93586 127.64865,143.759435 127.77515,148.319365 C127.79865,149.167549 127.33515,149.947016 126.57815,150.325213 C122.74615,152.241778 109.51465,157.574654 80.92915,157.574654 Z" id="Combined-Shape" fill="#E2D7D3"></path>
            </g>
            <g id="icon---phone" transform="translate(134.000000, 36.000000)">
                <path d="M59.905916,54.8359 L59.8217143,54.8334 C59.7647395,56.6334 58.5707899,58.2854 56.7395294,58.8489 L24.8165042,68.6834 C24.5104538,68.7754 24.2044034,68.8364 23.8988571,68.8629 L20.2756639,72.5269 L20.2716303,72.5274 C18.3828908,72.5464 16.6312941,71.3514 16.0413782,69.4724 L0.539193277,19.9774 C-0.806016807,15.8029 3.25583193,11.2669 5.59280672,10.4194 C5.63919328,10.3999 5.68608403,10.3854 5.73297479,10.3704 L37.656,0.5404 C39.9672605,-0.1726 43.0983529,2.4889 43.8178487,4.7804 L59.7455798,53.9099 L59.788437,54.0359 C59.8640672,54.2804 59.903395,54.5469 59.905916,54.8359" id="Fill-14" fill="#CD8076"></path>
                <path d="M59.8423866,54.99265 C59.785916,56.79265 58.5914622,58.44415 56.7602017,59.00815 L24.8371765,68.84265 C24.5316303,68.93465 24.2255798,68.99565 23.9195294,69.02215 C21.9097815,69.19615 19.9771765,67.96765 19.3549916,65.97915 L3.58910924,15.64965 C2.96692437,13.66115 3.85532773,11.56215 5.61398319,10.57815 C5.88221849,10.42965 6.17062185,10.30515 6.47616807,10.20865 L38.3951597,0.37915 C40.7104538,-0.33435 43.1623866,0.94615 43.8813782,3.23815 L59.6472605,53.56665 C59.6996975,53.73165 59.7395294,53.90115 59.7662521,54.06865 C59.8323025,54.37615 59.8554958,54.68865 59.8423866,54.99265" id="Fill-16" fill="#F3B2A4"></path>
                <path d="M51.3275798,48.58105 L24.7289244,56.77455 C23.3993445,57.18405 21.9870756,56.44655 21.5736303,55.12855 L10.7136303,20.45705 C10.3006891,19.13905 11.0438824,17.73755 12.3734622,17.32855 L38.9716134,9.13505 C40.3016975,8.72555 41.7144706,9.46255 42.1274118,10.78105 L52.9874118,45.45205 C53.4003529,46.77055 52.6571597,48.17155 51.3275798,48.58105" id="Fill-18" fill="#F5F5F5"></path>
                <path d="M59.905916,54.8359 C59.9402017,57.2679 57.4842353,61.1024 53.4501176,62.4969 L22.6489412,71.9859 C21.5275966,72.3309 20.5554958,72.7489 19.1008739,72.3814 L22.6852437,68.7874 C23.2474286,68.8919 23.8141513,68.9869 24.8165042,68.6834 L56.7395294,58.8489 C58.5707899,58.2854 59.7647395,56.6334 59.8217143,54.8334 L59.905916,54.8359 Z" id="Fill-20" fill="#C07164"></path>
                <path d="M20.2758655,72.5268 L22.6491429,71.9858 L21.5272941,72.3308 C21.1113277,72.4588 20.6908235,72.5218 20.2758655,72.5268" id="Fill-22" fill="#E1D0C2"></path>
                <path d="M42.2588571,57.86225 C42.5054118,59.75075 41.1617143,61.47975 39.2573445,61.72425 C37.353479,61.96875 35.6094454,60.63625 35.3628908,58.74775 C35.1163361,56.85925 36.4605378,55.13025 38.3644034,54.88575 C40.2692773,54.64125 42.0128067,55.97425 42.2588571,57.86225" id="Fill-24" fill="#F5F5F5"></path>
            </g>
            <g id="Icon---signal" transform="translate(91.000000, 31.000000)" fill="#F3B2A4">
                <path d="M32.03655,12.2275 C25.43105,15.629 25.48205,25.63 32.07855,29.0085 C34.93755,30.4725 37.47005,26.16 34.60255,24.691 C31.26605,22.9825 31.20555,18.272 34.56005,16.5445 C37.42205,15.071 34.89555,10.755 32.03655,12.2275" id="Fill-27"></path>
                <path d="M22.45895,6.96895 C11.63645,12.43595 11.73795,28.84495 22.53695,34.26695 C25.40545,35.70695 27.93995,31.39495 25.06045,29.94945 C17.52045,26.16395 17.40695,15.11295 24.98245,11.28645 C27.85495,9.83495 25.32695,5.52045 22.45895,6.96895" id="Fill-29"></path>
                <path d="M12.4687,0.7219 C5.1872,4.3679 0.3847,12.5624 0.3862,20.6024 C0.3877,28.6869 5.2732,36.8699 12.5892,40.5139 C15.4607,41.9439 17.9967,37.6324 15.1127,36.1964 C9.3247,33.3139 5.3957,27.0379 5.3862,20.6024 C5.3762,14.2154 9.2457,7.9169 14.9922,5.0394 C17.8697,3.5984 15.3407,-0.7161 12.4687,0.7219" id="Fill-31"></path>
            </g>
        </g>
    </g>
</svg>