<?xml version="1.0" encoding="UTF-8"?>
<svg width="256px" height="256px" viewBox="0 0 256 256" version="1.1" xmlns="http://www.w3.org/2000/svg" xmlns:xlink="http://www.w3.org/1999/xlink">
    <!-- Generator: Sketch 51.3 (57544) - http://www.bohemiancoding.com/sketch -->
    <title>Clothesee icon</title>
    <desc>Created with Sketch.</desc>
    <defs></defs>
    <g id="Page-2" stroke="none" stroke-width="1" fill="none" fill-rule="evenodd">
        <g id="Loading-page" transform="translate(-60.000000, -114.000000)" fill-rule="nonzero">
            <g id="Clothesee-icon" transform="translate(60.000000, 114.000000)">
                <g id="bg" fill="#F6F6F6">
                    <path d="M216,256 L40,256 C18,256 0,238 0,216 L0,40 C0,18 18,0 40,0 L216,0 C238,0 256,18 256,40 L256,216 C256,238 238,256 216,256 Z" id="bg_color"></path>
                </g>
                <g id="hanger" transform="translate(97.500000, 44.500000)" fill="#845453">
                    <g id="Group">
                        <path d="M4.01,48.53 C12.09,45.44 21.13,42.655 29.835,42.665 C38.48,42.675 47.44,45.42 55.455,48.52 C59.06,49.915 60.62,44.115 57.05,42.735 C48.54,39.44 39.01,36.655 29.835,36.665 C20.59,36.675 11.005,39.455 2.415,42.745 C-1.155,44.11 0.395,49.91 4.01,48.53 Z" id="Shape"></path>
                        <path d="M21.48,13.73 C21.53,11.16 22.36,8.55 24.69,7.18 C27.36,5.61 31.41,5.85 34.01,7.465 C36.175,8.805 37.43,11.19 37.4,13.73 C37.375,15.78 37.375,18.385 36.81,20.335 C35.655,24.345 29.145,23.525 27.27,27.02 C26.29,28.84 26.835,31.805 26.835,33.805 C26.835,35.76 26.835,37.715 26.835,39.665 C26.835,43.525 32.835,43.53 32.835,39.665 C32.835,38.07 32.835,36.48 32.835,34.885 C32.835,33.655 32.835,32.425 32.835,31.195 C32.835,30.705 32.885,30.185 32.835,29.695 C32.63,27.795 32.465,30.765 32.05,30.465 C32.045,30.46 33.515,29.785 33.98,29.585 C34.98,29.155 35.99,28.735 36.955,28.22 C39.22,27.01 41.38,25.275 42.3,22.8 C43.175,20.44 43.095,17.57 43.295,15.08 C43.47,12.895 43.275,10.765 42.455,8.705 C39.99,2.54 33.515,-0.42 27.105,0.305 C19.965,1.11 15.62,6.73 15.485,13.725 C15.405,17.59 21.405,17.59 21.48,13.73 Z" id="Shape"></path>
                    </g>
                </g>
                <g id="Layer_6" transform="translate(47.000000, 84.500000)">
                    <g id="Group">
                        <path d="M81,116.53 C52.415,116.53 39.185,111.215 35.35,109.305 C34.595,108.93 34.13,108.15 34.155,107.305 C34.28,102.76 34.885,86.985 37.485,67.165 C37.615,66.16 36.535,65.435 35.655,65.94 L29.19,69.665 C28.295,70.18 27.155,70.005 26.465,69.235 C19.055,60.99 4.42,35.635 0.355,28.505 C-0.24,27.46 0.125,26.14 1.16,25.535 C21.53,13.575 37.755,0.625 54.31,0.1 C55.32,0.07 56.225,0.73 56.5,1.7 C57.715,5.95 62.19,18.24 80.995,18.24 L80.995,116.53 L81,116.53 Z M81,116.53 L81.005,18.24 C99.81,18.24 104.285,5.95 105.5,1.7 C105.775,0.73 106.68,0.07 107.69,0.1 C124.245,0.625 140.47,13.575 160.84,25.535 C161.875,26.14 162.24,27.46 161.645,28.505 C157.58,35.635 142.945,60.99 135.535,69.235 C134.845,70.005 133.705,70.18 132.81,69.665 L126.345,65.94 C125.465,65.435 124.385,66.16 124.515,67.165 C127.115,86.985 127.72,102.76 127.845,107.305 C127.87,108.15 127.405,108.93 126.65,109.305 C122.815,111.215 109.585,116.53 81,116.53 Z" id="Combined-Shape" fill="#E2D7D3"></path>
                        <g transform="translate(59.000000, 42.000000)" fill="#845453" id="Oval">
                            <circle cx="40" cy="4" r="4"></circle>
                            <circle cx="4" cy="4" r="4"></circle>
                        </g>
                    </g>
                    <g id="Group" transform="translate(69.500000, 48.500000)">
                        <path d="M1.595,1.735 C1.595,1.735 3.33,9.67 11.56,9.67 C19.79,9.67 21.005,1.735 21.005,1.735 L1.595,1.735 Z" id="Shape" fill="#845453"></path>
                        <path d="M0.39,2.07 C1.575,7.25 6.285,10.925 11.56,10.925 C16.745,10.925 21.36,7.275 22.21,2.07 C22.34,1.285 21.885,0.49 21.005,0.49 C14.535,0.49 8.065,0.49 1.595,0.49 C-0.015,0.49 -0.015,2.99 1.595,2.99 C8.065,2.99 14.535,2.99 21.005,2.99 C20.605,2.465 20.2,1.935 19.8,1.41 C18.265,10.79 4.83,10.28 2.805,1.41 C2.44,-0.165 0.03,0.5 0.39,2.07 Z" id="Shape" fill="#845553"></path>
                    </g>
                    <ellipse id="Oval" fill="#FCBC7F" cx="81" cy="54.56" rx="4.025" ry="2.475"></ellipse>
                </g>
            </g>
        </g>
    </g>
</svg>