<?xml version="1.0" encoding="UTF-8"?>
<svg width="82px" height="82px" viewBox="0 0 82 82" version="1.1" xmlns="http://www.w3.org/2000/svg" xmlns:xlink="http://www.w3.org/1999/xlink">
    <!-- Generator: Sketch 51.3 (57544) - http://www.bohemiancoding.com/sketch -->
    <title>Group</title>
    <desc>Created with Sketch.</desc>
    <defs>
        <rect id="path-1" x="0" y="0" width="60" height="60" rx="14.4"></rect>
        <filter x="-29.2%" y="-25.8%" width="158.3%" height="158.3%" filterUnits="objectBoundingBox" id="filter-2">
            <feOffset dx="0" dy="2" in="SourceAlpha" result="shadowOffsetOuter1"></feOffset>
            <feGaussianBlur stdDeviation="5.5" in="shadowOffsetOuter1" result="shadowBlurOuter1"></feGaussianBlur>
            <feColorMatrix values="0 0 0 0 0.827115221   0 0 0 0 0.782199892   0 0 0 0 0.765564586  0 0 0 1 0" type="matrix" in="shadowBlurOuter1"></feColorMatrix>
        </filter>
        <linearGradient x1="50%" y1="11.3170936%" x2="50%" y2="100%" id="linearGradient-3">
            <stop stop-color="#9BE98B" offset="0%"></stop>
            <stop stop-color="#69B65E" offset="100%"></stop>
        </linearGradient>
    </defs>
    <g id="Page-2" stroke="none" stroke-width="1" fill="none" fill-rule="evenodd">
        <g id="Artboard" transform="translate(-602.000000, -45.000000)" fill-rule="nonzero">
            <g id="Group" transform="translate(613.000000, 54.000000)">
                <g id="icon-border">
                    <g>
                        <use fill="black" fill-opacity="1" filter="url(#filter-2)" xlink:href="#path-1"></use>
                        <use fill="#FFFFFF" xlink:href="#path-1"></use>
                    </g>
                </g>
                <rect id="icon-border" fill="url(#linearGradient-3)" x="0" y="0" width="60" height="60" rx="14.4"></rect>
                <g id="whatsapp-(1)" transform="translate(9.000000, 9.000000)" fill="#FFFFFF">
                    <path d="M19.9832163,0.0246042959 C8.83413462,0.559188544 0.0359423077,9.90943103 0.0697644231,21.1495274 C0.0800625,24.5729814 0.900778846,27.8042778 2.34856731,30.6593928 L0.125697115,41.5252396 C0.00545192308,42.1129976 0.531865385,42.6276544 1.1116875,42.4893823 L11.6846827,39.966832 C14.4010529,41.329422 17.4521106,42.1164544 20.6811635,42.1660697 C32.0765913,42.3413499 41.5783846,33.2295251 41.9335673,21.7583313 C42.3142933,9.46197852 32.2365144,-0.563052029 19.9832163,0.0246042959 Z M32.5990673,32.7579766 C29.5026779,35.8761136 25.3857692,37.5933308 21.0068654,37.5933308 C18.4428462,37.5933308 15.9880673,37.0140115 13.710476,35.8715384 L12.2380529,35.1329012 L5.75571635,36.679515 L7.12021154,30.0092091 L6.39480288,28.5787031 C5.21244231,26.2468869 4.61293269,23.7253532 4.61293269,21.0842549 C4.61293269,16.674494 6.31817308,12.5287718 9.4145625,9.41053317 C12.4832885,6.32025394 16.6673365,4.57507733 21.0071683,4.57507733 C25.3860721,4.575179 29.5027788,6.29239618 32.5991683,9.4104315 C35.6955577,12.5285685 37.4007981,16.6742907 37.400899,21.0839499 C37.4007981,25.4543642 35.6677933,29.667799 32.5990673,32.7579766 Z" id="Shape"></path>
                    <path d="M31.1680385,25.6566888 L27.1125144,24.4840196 C26.5793365,24.3298869 26.0051683,24.4821895 25.6166683,24.8808401 L24.6249231,25.8983599 C24.2067404,26.32741 23.5721971,26.4652754 23.018726,26.2397699 C21.1002548,25.4579227 17.0646202,21.844548 16.0340048,20.0371489 C15.7366731,19.5157819 15.7858413,18.8639714 16.1509183,18.3882544 L17.0167644,17.2602186 C17.3559952,16.8182563 17.4275769,16.2247031 17.2032404,15.7138081 L15.4969904,11.8276511 C15.0882981,10.8968563 13.907149,10.6259041 13.1355,11.2831031 C12.0036202,12.2471442 10.6606298,13.7121165 10.497375,15.335085 C10.2095337,18.1965036 11.4281394,21.8035747 16.0363269,26.1347442 C21.3600288,31.1384649 25.6232308,31.7995274 28.3989663,31.122401 C29.9733606,30.7383909 31.2315433,29.198894 32.0256058,27.9383814 C32.5669615,27.0789594 32.1394904,25.9376048 31.1680385,25.6566888 Z" id="Shape"></path>
                </g>
            </g>
        </g>
    </g>
</svg>