<?xml version="1.0" encoding="UTF-8"?>
<svg width="18px" height="18px" viewBox="0 0 18 18" version="1.1" xmlns="http://www.w3.org/2000/svg" xmlns:xlink="http://www.w3.org/1999/xlink">
    <!-- Generator: Sketch 51.3 (57544) - http://www.bohemiancoding.com/sketch -->
    <title>Searchbar/icon/cancel</title>
    <desc>Created with Sketch.</desc>
    <defs></defs>
    <g id="Searchbar/icon/cancel" stroke="none" stroke-width="1" fill="none" fill-rule="evenodd">
        <path d="M9,0 C10.6209679,0 12.1209677,0.40524212 13.5,1.21572581 C14.8790323,2.02620949 15.9737905,3.12096774 16.7842742,4.5 C17.5947579,5.87903226 18,7.37903207 18,9 C18,10.6209679 17.5947579,12.1209677 16.7842742,13.5 C15.9737905,14.8790323 14.8790323,15.9737905 13.5,16.7842742 C12.1209677,17.5947579 10.6209679,18 9,18 C7.37903207,18 5.87903226,17.5947579 4.5,16.7842742 C3.12096774,15.9737905 2.02620949,14.8790323 1.21572581,13.5 C0.40524212,12.1209677 0,10.6209679 0,9 C0,7.37903207 0.40524212,5.87903226 1.21572581,4.5 C2.02620949,3.12096774 3.12096774,2.02620949 4.5,1.21572581 C5.87903226,0.40524212 7.37903207,0 9,0 Z M9,16.2580645 C10.3064516,16.2580645 11.5161288,15.9314516 12.6290323,15.2782258 C13.7419357,14.625 14.625,13.7419357 15.2782258,12.6290323 C15.9314516,11.5161288 16.2580645,10.3064516 16.2580645,9 C16.2580645,7.69354839 15.9314516,6.48387115 15.2782258,5.37096774 C14.625,4.25806433 13.7419357,3.375 12.6290323,2.72177419 C11.5161288,2.06854839 10.3064516,1.74193548 9,1.74193548 C7.69354839,1.74193548 6.48387115,2.06854839 5.37096774,2.72177419 C4.25806433,3.375 3.375,4.25806433 2.72177419,5.37096774 C2.06854839,6.48387115 1.74193548,7.69354839 1.74193548,9 C1.74193548,10.3064516 2.06854839,11.5161288 2.72177419,12.6290323 C3.375,13.7419357 4.25806433,14.625 5.37096774,15.2782258 C6.48387115,15.9314516 7.69354839,16.2580645 9,16.2580645 Z M10.4516129,9 L12.7016129,11.25 C12.7741935,11.3467744 12.8104839,11.4556453 12.8104839,11.5766129 C12.8104839,11.6975805 12.7741935,11.7943548 12.7016129,11.8669355 L11.8669355,12.7016129 C11.7943548,12.7741935 11.6975805,12.8104839 11.5766129,12.8104839 C11.4556453,12.8104839 11.3467744,12.7741935 11.25,12.7016129 L9,10.4516129 L6.75,12.7016129 C6.65322562,12.7741935 6.54435465,12.8104839 6.4233871,12.8104839 C6.30241954,12.8104839 6.20564516,12.7741935 6.13306452,12.7016129 L5.2983871,11.8669355 C5.22580645,11.7943548 5.18951613,11.6975805 5.18951613,11.5766129 C5.18951613,11.4556453 5.22580645,11.3467744 5.2983871,11.25 L7.5483871,9 L5.2983871,6.75 C5.22580645,6.65322562 5.18951613,6.54435465 5.18951613,6.4233871 C5.18951613,6.30241954 5.22580645,6.20564516 5.2983871,6.13306452 L6.13306452,5.2983871 C6.20564516,5.22580645 6.30241954,5.18951613 6.4233871,5.18951613 C6.54435465,5.18951613 6.65322562,5.22580645 6.75,5.2983871 L9,7.5483871 L11.25,5.2983871 C11.3467744,5.22580645 11.4556453,5.18951613 11.5766129,5.18951613 C11.6975805,5.18951613 11.7943548,5.22580645 11.8669355,5.2983871 L12.7016129,6.13306452 C12.7741935,6.20564516 12.8104839,6.30241954 12.8104839,6.4233871 C12.8104839,6.54435465 12.7741935,6.65322562 12.7016129,6.75 L10.4516129,9 Z" id="ï—" fill="#444444"></path>
    </g>
</svg>