<?xml version="1.0" encoding="UTF-8"?>
<svg width="18px" height="18px" viewBox="0 0 18 18" version="1.1" xmlns="http://www.w3.org/2000/svg" xmlns:xlink="http://www.w3.org/1999/xlink">
    <!-- Generator: Sketch 51.3 (57544) - http://www.bohemiancoding.com/sketch -->
    <title>Searchbar/icon/search</title>
    <desc>Created with Sketch.</desc>
    <defs></defs>
    <g id="Searchbar/icon/search" stroke="none" stroke-width="1" fill="none" fill-rule="evenodd">
        <path d="M12.4615385,7.61538462 C12.4615385,4.94350962 10.2872596,2.76923077 7.61538462,2.76923077 C4.94350962,2.76923077 2.76923077,4.94350962 2.76923077,7.61538462 C2.76923077,10.2872596 4.94350962,12.4615385 7.61538462,12.4615385 C10.2872596,12.4615385 12.4615385,10.2872596 12.4615385,7.61538462 Z M18,16.6153846 C18,17.3725962 17.3725962,18 16.6153846,18 C16.2475962,18 15.890625,17.8485577 15.6418269,17.5889423 L11.9314904,13.8894231 C10.6658654,14.765625 9.15144231,15.2307692 7.61538462,15.2307692 C3.40745192,15.2307692 0,11.8233173 0,7.61538462 C0,3.40745192 3.40745192,0 7.61538462,0 C11.8233173,0 15.2307692,3.40745192 15.2307692,7.61538462 C15.2307692,9.15144231 14.765625,10.6658654 13.8894231,11.9314904 L17.5997596,15.6418269 C17.8485577,15.890625 18,16.2475962 18,16.6153846 Z" id="" fill="#444444"></path>
    </g>
</svg>